Coordinates
version=1
nRows=13
nColumns=22
inDegrees=yes

Units are S.I. units (second, meters, Newtons, ...)
If the header above contains a line with 'inDegrees', this indicates whether rotational values are in degrees (yes) or radians (no).

endheader
time	pelvis_tilt	pelvis_list	pelvis_rotation	pelvis_tx	pelvis_ty	pelvis_tz	hip_flexion_r	hip_adduction_r	hip_rotation_r	knee_angle_r	ankle_angle_r	subtalar_angle_r	hip_flexion_l	hip_adduction_l	hip_rotation_l	knee_angle_l	ankle_angle_l	subtalar_angle_l	lumbar_extension	lumbar_bending	lumbar_rotation
      2.85000000	     -2.86917559	     -3.35991270	     -2.16898106	     -0.73419996	      0.98387164	      0.02285760	     27.52852708	      2.31185217	     -6.64301271	    -18.59508627	     -2.03532948	      7.61658966	    -10.68775085	     -4.44965742	     -7.94993289	    -25.69585903	      6.67445827	      5.86115705	     -3.71049090	      2.89243034	     -5.52164976
      2.86000000	     -2.92413007	     -3.73081960	     -2.14480046	     -0.72219988	      0.98566527	      0.02527896	     27.10685224	      2.80177409	     -6.56926019	    -19.07453979	     -2.01238713	      7.25263493	    -10.26784987	     -5.14517275	     -8.40864165	    -27.27995055	      4.73454935	      6.23425314	     -3.42737711	      3.32246475	     -5.46179280
      2.87000000	     -2.96337142	     -4.09643496	     -2.10474317	     -0.71030706	      0.98749520	      0.02773983	     26.62477195	      3.30349132	     -6.46534177	    -19.47918806	     -1.89126215	      6.77444513	     -9.75162923	     -5.88151795	     -8.95518786	    -29.00472401	      2.77936715	      6.50599021	     -3.15919931	      3.73324216	     -5.45160602
      2.88000000	     -2.98861834	     -4.45264530	     -2.03941577	     -0.69856525	      0.98933395	      0.03021829	     26.08257181	      3.80828763	     -6.35295776	    -19.79388783	     -1.69444673	      6.19899932	     -9.13134451	     -6.65681488	     -9.54447607	    -30.88059397	      0.86359979	      6.65582990	     -2.91209627	      4.11703461	     -5.46571656
      2.89000000	     -2.99728145	     -4.78423138	     -1.93109704	     -0.68699301	      0.99115557	      0.03270546	     25.47083528	      4.29310852	     -6.26882928	    -19.99596038	     -1.43193389	      5.47662066	     -8.40462498	     -7.46643131	    -10.16268941	    -32.91186289	     -0.91396381	      6.66251961	     -2.68977433	      4.44777702	     -5.52383877
      2.90000000	     -2.98804190	     -5.11073864	     -1.79067776	     -0.67563320	      0.99294167	      0.03518587	     24.81805973	      4.77620864	     -6.19717202	    -20.13662775	     -1.14032914	      4.77757736	     -7.58423684	     -8.31087355	    -10.73393418	    -35.07858951	     -2.50144696	      6.55858401	     -2.50622020	      4.75625881	     -5.60792267
      2.91000000	     -2.95211936	     -5.41094277	     -1.60593586	     -0.66449428	      0.99467511	      0.03762601	     24.11909139	      5.22680359	     -6.17207817	    -20.21783282	     -0.80011867	      3.97590507	     -6.67844752	     -9.15805890	    -11.21179265	    -37.36640788	     -3.82895015	      6.28103663	     -2.37164459	      5.01294553	     -5.71226956
      2.92000000	     -2.90175435	     -5.70977348	     -1.38129501	     -0.65359747	      0.99634960	      0.04000691	     23.38554201	      5.66619302	     -6.19938094	    -20.22874377	     -0.45540495	      3.30798616	     -5.67994159	    -10.02328843	    -11.58082665	    -39.74781514	     -4.84175884	      5.92652054	     -2.28116847	      5.25339268	     -5.82449881
      2.93000000	     -2.83101440	     -5.99200877	     -1.11350888	     -0.64294351	      0.99795571	      0.04228972	     22.61869268	      6.07466034	     -6.27733866	    -20.18267026	     -0.08606247	      2.72085664	     -4.60004460	    -10.86588594	    -11.79276695	    -42.18596511	     -5.50924572	      5.48034581	     -2.23939762	      5.46089508	     -5.94998874
      2.94000000	     -2.73808097	     -6.25609640	     -0.80456048	     -0.63253570	      0.99950590	      0.04444245	     21.82236283	      6.44787607	     -6.40821455	    -20.08773960	      0.29886553	      2.27340765	     -3.45404801	    -11.66217396	    -11.83596294	    -44.62311387	     -5.82261548	      5.01219788	     -2.24898021	      5.63994627	     -6.09183920
      2.95000000	     -2.63008786	     -6.47935591	     -0.47224570	     -0.62237512	      1.00099309	      0.04642402	     21.01913422	      6.76430200	     -6.57725888	    -19.97727648	      0.72051727	      1.87166303	     -2.25042593	    -12.35666616	    -11.70762558	    -47.00300420	     -5.82729219	      4.45112064	     -2.30207203	      5.77386549	     -6.19784787
      2.96000000	     -2.51933689	     -6.64298767	     -0.14750578	     -0.61248092	      1.00240662	      0.04830660	     20.23469914	      7.01664646	     -6.75573918	    -19.87290062	      1.16540074	      1.50312101	     -0.99894911	    -12.91963449	    -11.45432156	    -49.27719251	     -5.55745154	      3.75714321	     -2.38879686	      5.83167624	     -6.24278388
      2.97000000	     -2.38182006	     -6.76829184	      0.19478267	     -0.60280253	      1.00382273	      0.05001322	     19.41871351	      7.21945965	     -6.93482673	    -19.73482403	      1.60149421	      1.30941484	      0.26552290	    -13.36495332	    -11.07460720	    -51.40797705	     -5.00621706	      3.19424581	     -2.52568723	      5.85302820	     -6.28026633
